<svg width="498" height="900" viewBox="0 0 498 900" fill="none" xmlns="http://www.w3.org/2000/svg">
<g clipPath="url(#clip0_2_12)">
<path fillRule="evenodd" clipRule="evenodd" d="M162.857 85.7142C162.857 38.3756 201.233 0 248.571 0C295.91 0 334.286 38.3756 334.286 85.7143V330.144C334.286 332.796 335.339 335.339 337.215 337.215L494.214 494.214C496.089 496.089 497.143 498.633 497.143 501.285V675.714C497.143 681.237 492.666 685.714 487.143 685.714H436.999C434.347 685.714 431.804 684.661 429.928 682.785L351.357 604.214C345.057 597.914 334.286 602.376 334.286 611.285V675.714C334.286 681.237 329.809 685.714 324.286 685.714H172.857C167.334 685.714 162.857 681.237 162.857 675.714V611.285C162.857 602.376 152.086 597.914 145.786 604.214L67.2147 682.785C65.3393 684.661 62.7958 685.714 60.1436 685.714H9.99999C4.47715 685.714 0 681.237 0 675.714V501.285C0 498.633 1.05357 496.089 2.92893 494.214L159.928 337.215C161.804 335.339 162.857 332.796 162.857 330.144V85.7142Z" fill="#68D391"/>
<path d="M309 797.143C309 830.28 264.994 900 249 900C233.006 900 189 830.28 189 797.143C189 764.006 215.863 737.143 249 737.143C282.137 737.143 309 764.006 309 797.143Z" fill="#68D391"/>
</g>
<defs>
<clipPath id="clip0_2_12">
<rect width="498" height="900" fill="white"/>
</clipPath>
</defs>
</svg>
